<?xml version="1.0" encoding="UTF-8"?>
<svg width="17px" height="22px" viewBox="0 0 17 22" version="1.1" xmlns="http://www.w3.org/2000/svg" xmlns:xlink="http://www.w3.org/1999/xlink">
    <title>Fill 3</title>
    <g id="工作台" stroke="none" stroke-width="1" fill="none" fill-rule="evenodd">
        <path d="M10.5145657,8.33510188 L10.0933115,8.33510188 L7.70365142,8.33510188 L6.96071222,8.33510188 C6.91560823,8.53977184 6.40414608,10.1099011 6.0705468,12.5599835 L10.0933115,12.5599835 L10.5145657,12.5599835 C11.6774826,12.5599835 12.6199857,13.5054652 12.6199857,14.6726371 C12.6199857,15.8389581 11.6774826,16.7848652 10.5145657,16.7848652 L5.04081434,16.7848652 C5.04081434,11.9983113 6.15054255,8.64104305 6.21819852,8.33510188 C6.35989311,7.69641245 6.43563376,7.03219246 6.43563376,6.35010108 C6.43563376,4.92677253 5.90885327,3.62896923 5.04081434,2.63966015 C4.23149569,1.71630501 3.12517155,1.06272275 1.87034468,0.827841625 L1.87034468,0.826565098 C1.81758153,0.816778384 1.76396736,0.809119217 1.71035319,0.800183522 C1.68567366,0.796779448 1.66141963,0.791673337 1.63631458,0.788269262 C1.54993619,0.775929493 1.46270679,0.765291761 1.37462637,0.756781575 C1.36569068,0.755930557 1.35718049,0.755079538 1.3482448,0.75422852 C1.26995109,0.746994862 1.19165738,0.741463241 1.11293816,0.737633658 C1.10059839,0.737208149 1.08868413,0.736782639 1.07634436,0.73635713 C0.99634862,0.732953056 0.915927366,0.7304 0.835080602,0.7304 L0.8304,0.7304 L0.8304,21.0097468 L10.5145657,21.0097468 C14.0028908,21.0097468 16.8304,18.172451 16.8304,14.6726371 C16.8304,11.1723978 14.0028908,8.33510188 10.5145657,8.33510188" id="Fill-3" fill="#FFFFFF"></path>
    </g>
</svg>